<svg width="514" height="514" viewBox="0 0 514 514" fill="none" xmlns="http://www.w3.org/2000/svg">
<rect width="514" height="514" rx="169" fill="white"/>
<rect width="514" height="514" rx="169" fill="#568381" fill-opacity="0.5"/>
<path d="M340 400.5C324.174 398.917 310.63 366.874 305.661 350.532C305.551 350.171 305.404 349.835 305.214 349.509C302.961 345.647 297.107 346.743 296.404 351.159L290.462 388.46C289.881 392.105 291.586 395.736 294.762 397.618L301.983 401.897C302.658 402.297 303.288 402.795 303.839 403.354C326.292 426.097 338.084 429.96 351.5 423.5C378.5 410.5 398.5 368 405.5 335.5C411.1 309.5 400 318 393 331C382 354.833 356 402.1 340 400.5Z" fill="#8C7039" stroke="#392E60" stroke-width="8"/>
<path d="M213.702 149C213.582 149.517 213.414 150.113 213.195 150.788L193.702 219.5C190.035 229.5 180.902 248.8 173.702 246C164.944 242.594 165.656 245.343 170.768 214.166C171.052 212.435 171.844 210.802 173.019 209.5C199.535 180.119 210.436 159.278 213.195 150.788L213.702 149Z" fill="#8C7039"/>
<path d="M213.702 149C212.07 156.02 201.641 177.785 173.019 209.5C171.844 210.802 171.052 212.435 170.768 214.166C165.656 245.343 164.944 242.594 173.702 246C180.902 248.8 190.035 229.5 193.702 219.5L213.702 149Z" stroke="#392E60" stroke-width="8"/>
<path d="M261 435.995C266.287 451.526 264.659 473.132 262.429 486.66C261.744 490.815 264.142 495.038 268.341 495.364C277.696 496.091 288.81 493.017 288.5 477.495C288 452.495 297 427.995 299 414.995C301 401.995 308 311.495 291 287.495C277.561 268.522 278.313 212.833 280.424 186.43C280.474 185.795 280.603 185.185 280.804 184.581C287.644 164.044 292.471 148.82 290.5 136.995C287.588 119.522 282.667 97.6612 283.5 87.9945C285.833 76.3278 288.5 50.5945 280.5 40.9945C246.797 0.947716 217.516 17.2034 196.553 33.5617C196.182 33.8506 195.792 34.1057 195.377 34.3267L184.875 39.9279C182.462 41.2151 180.873 43.646 180.663 46.3732L180 54.9945C180 55.2108 181.169 55.9239 183.191 57.3235C187.131 60.0504 192.799 64.7977 197.317 66.3906C200.493 67.5102 204.919 68.873 211 70.4945C229 75.2945 227.5 90.8279 224.5 97.9945C189 179.495 218.294 129.495 195 189.995C175.249 241.292 185.724 282.979 201.137 309.863M261 435.995C257.667 447.828 248.5 471.495 238.5 471.495C226 471.495 199.5 478.495 232 445.495C248 429.995 227.5 420.495 219.5 405.495C211.614 390.708 191.096 351.144 195.302 319.368C195.423 318.456 195.733 317.578 196.156 316.761C197.883 313.424 198.743 311.891 199.203 311.187C199.604 310.572 200.325 310.318 200.966 309.959L201.137 309.863M261 435.995C260.972 435.913 260.944 435.831 260.916 435.748ZM261 435.995L260.916 435.748ZM236.349 303.544C237.635 301.78 239.085 298.714 237.959 299.747C236.912 300.709 236.462 302.124 236.349 303.544ZM236.349 303.544C236.231 303.707 236.114 303.858 236 303.995ZM236.349 303.544C236.344 303.609 236.34 303.674 236.336 303.739C234.349 338.213 253.04 412.476 260.916 435.748M221.144 335.381C221.773 335.948 222.392 336.486 223 336.995C226.475 339.427 222.905 337.381 221.144 335.381ZM221.144 335.381C220.878 335.079 220.653 334.779 220.5 334.495ZM221.144 335.381C214.836 329.695 207.558 321.064 201.137 309.863Z" fill="#8C7039"/>
<path d="M261 435.995C266.287 451.526 264.659 473.132 262.429 486.66C261.744 490.815 264.142 495.038 268.341 495.364C277.696 496.091 288.81 493.017 288.5 477.495C288 452.495 297 427.995 299 414.995C301 401.995 308 311.495 291 287.495C277.561 268.522 278.313 212.833 280.424 186.43C280.474 185.795 280.603 185.185 280.804 184.581C287.644 164.044 292.471 148.82 290.5 136.995C287.588 119.522 282.667 97.6612 283.5 87.9945C285.833 76.3278 288.5 50.5945 280.5 40.9945C246.797 0.947716 217.516 17.2034 196.553 33.5617C196.182 33.8506 195.792 34.1057 195.377 34.3267L184.875 39.9279C182.462 41.2151 180.873 43.646 180.663 46.3732L180 54.9945C180 55.2108 181.169 55.9239 183.191 57.3235C187.131 60.0504 192.799 64.7977 197.317 66.3906C200.493 67.5102 204.919 68.873 211 70.4945C229 75.2945 227.5 90.8279 224.5 97.9945C189 179.495 218.294 129.495 195 189.995C175.249 241.292 185.724 282.979 201.137 309.863M261 435.995C257.667 447.828 248.5 471.495 238.5 471.495C226 471.495 199.5 478.495 232 445.495C248 429.995 227.5 420.495 219.5 405.495C211.614 390.708 191.096 351.144 195.302 319.368C195.423 318.456 195.733 317.578 196.156 316.761C197.883 313.424 198.743 311.891 199.203 311.187C199.604 310.572 200.325 310.318 200.966 309.959L201.137 309.863M261 435.995C260.972 435.913 260.944 435.831 260.916 435.748M261 435.995L260.916 435.748M201.137 309.863C207.558 321.064 214.836 329.695 221.144 335.381M260.916 435.748C253.04 412.476 234.349 338.213 236.336 303.739C236.34 303.674 236.344 303.609 236.349 303.544M236.349 303.544C237.635 301.78 239.085 298.714 237.959 299.747C236.912 300.709 236.462 302.124 236.349 303.544ZM236.349 303.544C236.231 303.707 236.114 303.858 236 303.995M221.144 335.381C221.773 335.948 222.392 336.486 223 336.995C226.475 339.427 222.905 337.381 221.144 335.381ZM221.144 335.381C220.878 335.079 220.653 334.779 220.5 334.495" stroke="#392E60" stroke-width="8"/>
<path d="M253.5 149C248.5 152.167 228.4 159.6 230 170C231.554 180.103 216.249 213.513 204.525 229.165C203.857 230.058 203.33 231.039 203.022 232.11C199.894 242.978 195.915 263.296 202 269C210 276.5 214.5 277.5 221 266C227.147 255.125 220.774 233.071 232.748 227.747C234.167 227.116 235.618 226.462 236.691 225.341C247.701 213.831 249.875 197.078 257.5 188.5" stroke="#392E60" stroke-width="8"/>
<path d="M193.216 44.7624L188.961 40.8776C188.423 40.3866 187.595 40.4054 187.08 40.9203C187.027 40.9733 186.969 41.0219 186.908 41.0655L184.064 43.0973C183.689 43.3653 183.336 43.6639 183.01 43.9899L182.523 44.4768C179.293 47.7067 179.546 53.0159 183.067 55.925L183.196 56.0311C185.984 58.3348 190.016 58.3348 192.804 56.0311L192.94 55.9194C196.404 53.0576 196.534 47.7923 193.216 44.7624Z" stroke="#392E60" stroke-width="8"/>
<circle cx="228" cy="39" r="8" fill="#392E60"/>
<path d="M264.5 47C263.004 46.145 261.599 45.5641 260.715 45.3355C258.995 44.8906 261.978 46.4199 263.677 46.9395C270.114 48.9076 279.143 57.6966 271.5 77.5C263.143 99.1519 255.027 89.4504 251.519 80.8535C251.155 79.9632 250.988 79.0101 250.965 78.0488L250.5 59C250.5 56.5 251.111 61.6608 250.711 67.6608" stroke="#392E60" stroke-width="8"/>
<mask id="mask0_7_2" style="mask-type:alpha" maskUnits="userSpaceOnUse" x="176" y="11" width="131" height="489">
<path d="M261 435.995C266.287 451.526 264.659 473.132 262.429 486.66C261.744 490.815 264.142 495.038 268.341 495.364C277.696 496.091 288.81 493.017 288.5 477.495C288 452.495 297 427.995 299 414.995C301 401.995 308 311.495 291 287.495C277.561 268.522 278.313 212.833 280.424 186.43C280.474 185.795 280.603 185.185 280.804 184.581C287.644 164.044 292.471 148.82 290.5 136.995C287.588 119.522 282.667 97.6612 283.5 87.9945C285.833 76.3278 288.5 50.5945 280.5 40.9945C246.797 0.947716 217.516 17.2034 196.553 33.5617C196.182 33.8506 195.792 34.1057 195.377 34.3267L184.875 39.9279C182.462 41.2151 180.873 43.646 180.663 46.3732L180 54.9945C180 55.2108 181.169 55.9239 183.191 57.3235C187.131 60.0504 192.799 64.7977 197.317 66.3906C200.493 67.5102 204.919 68.873 211 70.4945C229 75.2945 227.5 90.8279 224.5 97.9945C189 179.495 218.294 129.495 195 189.995C175.249 241.292 185.724 282.979 201.137 309.863M261 435.995C257.667 447.828 248.5 471.495 238.5 471.495C226 471.495 199.5 478.495 232 445.495C248 429.995 227.5 420.495 219.5 405.495C211.614 390.708 191.096 351.144 195.302 319.368C195.423 318.456 195.733 317.578 196.156 316.761C197.883 313.424 198.743 311.891 199.203 311.187C199.604 310.572 200.325 310.318 200.966 309.959L201.137 309.863M261 435.995C260.972 435.913 260.944 435.831 260.916 435.748ZM261 435.995L260.916 435.748ZM236.349 303.544C237.635 301.78 239.085 298.714 237.959 299.747C236.912 300.709 236.462 302.124 236.349 303.544ZM236.349 303.544C236.231 303.707 236.114 303.858 236 303.995ZM236.349 303.544C236.344 303.609 236.34 303.674 236.336 303.739C234.349 338.213 253.04 412.476 260.916 435.748M221.144 335.381C221.773 335.948 222.392 336.486 223 336.995C226.475 339.427 222.905 337.381 221.144 335.381ZM221.144 335.381C220.878 335.079 220.653 334.779 220.5 334.495ZM221.144 335.381C214.836 329.695 207.558 321.064 201.137 309.863Z" fill="#8C7039"/>
<path d="M261 435.995C266.287 451.526 264.659 473.132 262.429 486.66C261.744 490.815 264.142 495.038 268.341 495.364C277.696 496.091 288.81 493.017 288.5 477.495C288 452.495 297 427.995 299 414.995C301 401.995 308 311.495 291 287.495C277.561 268.522 278.313 212.833 280.424 186.43C280.474 185.795 280.603 185.185 280.804 184.581C287.644 164.044 292.471 148.82 290.5 136.995C287.588 119.522 282.667 97.6612 283.5 87.9945C285.833 76.3278 288.5 50.5945 280.5 40.9945C246.797 0.947716 217.516 17.2034 196.553 33.5617C196.182 33.8506 195.792 34.1057 195.377 34.3267L184.875 39.9279C182.462 41.2151 180.873 43.646 180.663 46.3732L180 54.9945C180 55.2108 181.169 55.9239 183.191 57.3235C187.131 60.0504 192.799 64.7977 197.317 66.3906C200.493 67.5102 204.919 68.873 211 70.4945C229 75.2945 227.5 90.8279 224.5 97.9945C189 179.495 218.294 129.495 195 189.995C175.249 241.292 185.724 282.979 201.137 309.863M261 435.995C257.667 447.828 248.5 471.495 238.5 471.495C226 471.495 199.5 478.495 232 445.495C248 429.995 227.5 420.495 219.5 405.495C211.614 390.708 191.096 351.144 195.302 319.368C195.423 318.456 195.733 317.578 196.156 316.761C197.883 313.424 198.743 311.891 199.203 311.187C199.604 310.572 200.325 310.318 200.966 309.959L201.137 309.863M261 435.995C260.972 435.913 260.944 435.831 260.916 435.748M261 435.995L260.916 435.748M201.137 309.863C207.558 321.064 214.836 329.695 221.144 335.381M260.916 435.748C253.04 412.476 234.349 338.213 236.336 303.739C236.34 303.674 236.344 303.609 236.349 303.544M236.349 303.544C237.635 301.78 239.085 298.714 237.959 299.747C236.912 300.709 236.462 302.124 236.349 303.544ZM236.349 303.544C236.231 303.707 236.114 303.858 236 303.995M221.144 335.381C221.773 335.948 222.392 336.486 223 336.995C226.475 339.427 222.905 337.381 221.144 335.381ZM221.144 335.381C220.878 335.079 220.653 334.779 220.5 334.495" stroke="#392E60" stroke-width="8"/>
</mask>
<g mask="url(#mask0_7_2)">
<path d="M216 476C222.5 473.5 240.5 450.5 224 397.5C213.57 363.997 193.665 356.562 196 302C200.001 208.5 177 284.5 190.5 203C196.167 182.167 198.917 122.782 220.5 97.5C238 77 212.5 82 200.001 75.0001C178.607 63.0183 160.245 48.6996 197.5 19.5C234.5 -9.49999 225.499 -8.00006 232.5 14" stroke="#4D3608" stroke-opacity="0.4" stroke-width="35"/>
</g>
</svg>
